<svg width="34" height="34" viewBox="0 0 34 34" fill="none" xmlns="http://www.w3.org/2000/svg">
<rect x="1" y="1" width="32" height="32" rx="16" fill="black" stroke="white" stroke-width="1.2"/>
<g clip-path="url(#clip0_1461_242)">
<path fill-rule="evenodd" clip-rule="evenodd" d="M13.7017 9.048C12.8503 9.08686 12.2686 9.22171 11.7589 9.42057C11.2331 9.624 10.7874 9.89829 10.3417 10.3429C9.89829 10.7874 9.624 11.2343 9.42057 11.76C9.22171 12.2686 9.08686 12.8503 9.048 13.7017C9.00914 14.5543 9 14.8274 9 17C9 19.1726 9.00914 19.4457 9.048 20.2983C9.08686 21.1497 9.22171 21.7314 9.42057 22.2411C9.624 22.7669 9.89829 23.2126 10.3429 23.6583C10.7874 24.1017 11.2343 24.376 11.76 24.5806C12.2686 24.7783 12.8503 24.912 13.7017 24.952C14.5554 24.9909 14.8274 25 17 25C19.1726 25 19.4457 24.9909 20.2983 24.952C21.1497 24.9131 21.7314 24.7783 22.2411 24.5806C22.7669 24.3749 23.2126 24.1017 23.6583 23.6571C24.1017 23.2126 24.376 22.7657 24.5806 22.24C24.7783 21.7314 24.912 21.1497 24.952 20.2983C24.9909 19.4446 25 19.1726 25 17C25 14.8274 24.9909 14.5543 24.952 13.7017C24.9131 12.8503 24.7783 12.2686 24.5806 11.7589C24.3795 11.2249 24.0644 10.7413 23.6571 10.3417C23.2126 9.89829 22.7657 9.624 22.24 9.42057C21.7314 9.22171 21.1497 9.08686 20.2983 9.048C19.4457 9.00914 19.1726 9 17 9C14.8274 9 14.5543 9.00914 13.7017 9.048ZM12.8914 17C12.8914 18.0897 13.3243 19.1347 14.0948 19.9052C14.8653 20.6757 15.9103 21.1086 17 21.1086C18.0897 21.1086 19.1347 20.6757 19.9052 19.9052C20.6757 19.1347 21.1086 18.0897 21.1086 17C21.1086 15.9103 20.6757 14.8653 19.9052 14.0948C19.1347 13.3243 18.0897 12.8914 17 12.8914C15.9103 12.8914 14.8653 13.3243 14.0948 14.0948C13.3243 14.8653 12.8914 15.9103 12.8914 17ZM17 19.6663C16.2929 19.6663 15.6147 19.3854 15.1147 18.8853C14.6146 18.3853 14.3337 17.7071 14.3337 17C14.3337 16.2929 14.6146 15.6147 15.1147 15.1147C15.6147 14.6146 16.2929 14.3337 17 14.3337C17.7071 14.3337 18.3853 14.6146 18.8853 15.1147C19.3854 15.6147 19.6663 16.2929 19.6663 17C19.6663 17.7071 19.3854 18.3853 18.8853 18.8853C18.3853 19.3854 17.7071 19.6663 17 19.6663ZM22.6 12.44C22.6 12.5661 22.5752 12.6909 22.5269 12.8074C22.4787 12.9238 22.408 13.0297 22.3188 13.1188C22.2297 13.208 22.1238 13.2787 22.0074 13.3269C21.8909 13.3752 21.7661 13.4 21.64 13.4C21.5139 13.4 21.3891 13.3752 21.2726 13.3269C21.1562 13.2787 21.0503 13.208 20.9612 13.1188C20.872 13.0297 20.8013 12.9238 20.7531 12.8074C20.7048 12.6909 20.68 12.5661 20.68 12.44C20.68 12.1854 20.7811 11.9412 20.9612 11.7612C21.1412 11.5811 21.3854 11.48 21.64 11.48C21.8946 11.48 22.1388 11.5811 22.3188 11.7612C22.4989 11.9412 22.6 12.1854 22.6 12.44Z" fill="white"/>
</g>
<defs>
<clipPath id="clip0_1461_242">
<rect width="32" height="32" fill="white" transform="translate(1 1)"/>
</clipPath>
</defs>
</svg>
