<svg width="16" height="16" viewBox="0 0 16 16" fill="none" xmlns="http://www.w3.org/2000/svg">
<path d="M-1480 -490C-1480 -491.105 -1479.1 -492 -1478 -492H3580C3581.1 -492 3582 -491.105 3582 -490V4423C3582 4424.1 3581.1 4425 3580 4425H-1478C-1479.1 4425 -1480 4424.1 -1480 4423V-490Z" fill="#282828"/>
<path d="M-1478 -491H3580V-493H-1478V-491ZM3581 -490V4423H3583V-490H3581ZM3580 4424H-1478V4426H3580V4424ZM-1479 4423V-490H-1481V4423H-1479ZM-1478 4424C-1478.55 4424 -1479 4423.55 -1479 4423H-1481C-1481 4424.66 -1479.66 4426 -1478 4426V4424ZM3581 4423C3581 4423.55 3580.55 4424 3580 4424V4426C3581.66 4426 3583 4424.66 3583 4423H3581ZM3580 -491C3580.55 -491 3581 -490.552 3581 -490H3583C3583 -491.657 3581.66 -493 3580 -493V-491ZM-1478 -493C-1479.66 -493 -1481 -491.657 -1481 -490H-1479C-1479 -490.552 -1478.55 -491 -1478 -491V-493Z" fill="black" fill-opacity="0.1"/>
<rect width="1440" height="4373" transform="translate(-1328 -82)" fill="white"/>
<mask id="path-3-inside-1_0_1" fill="#E5E5E5">
<path d="M-1328 -50H112V138H-1328V-50Z"/>
</mask>
<path d="M-1328 -50H112V138H-1328V-50Z" fill="white"/>
<path d="M112 137H-1328V139H112V137Z" fill="#E5E5E5" mask="url(#path-3-inside-1_0_1)"/>
<path d="M2.72125 5.9949L7.06792 10.3416C7.58125 10.8549 8.42125 10.8549 8.93458 10.3416L13.2813 5.9949" stroke="#292D32" stroke-miterlimit="10" stroke-linecap="round" stroke-linejoin="round"/>
</svg>
