<svg width="34" height="34" viewBox="0 0 34 34" fill="none" xmlns="http://www.w3.org/2000/svg">
<rect x="0.999756" y="1" width="32" height="32" rx="16" stroke="white" stroke-width="1.2"/>
<path d="M24 8C24.5304 8 25.0391 8.21071 25.4142 8.58579C25.7893 8.96086 26 9.46957 26 10V24C26 24.5304 25.7893 25.0391 25.4142 25.4142C25.0391 25.7893 24.5304 26 24 26H10C9.46957 26 8.96086 25.7893 8.58579 25.4142C8.21071 25.0391 8 24.5304 8 24V10C8 9.46957 8.21071 8.96086 8.58579 8.58579C8.96086 8.21071 9.46957 8 10 8H24ZM23.5 23.5V18.2C23.5 17.3354 23.1565 16.5062 22.5452 15.8948C21.9338 15.2835 21.1046 14.94 20.24 14.94C19.39 14.94 18.4 15.46 17.92 16.24V15.13H15.13V23.5H17.92V18.57C17.92 17.8 18.54 17.17 19.31 17.17C19.6813 17.17 20.0374 17.3175 20.2999 17.5801C20.5625 17.8426 20.71 18.1987 20.71 18.57V23.5H23.5ZM11.88 13.56C12.3256 13.56 12.7529 13.383 13.0679 13.0679C13.383 12.7529 13.56 12.3256 13.56 11.88C13.56 10.95 12.81 10.19 11.88 10.19C11.4318 10.19 11.0019 10.3681 10.685 10.685C10.3681 11.0019 10.19 11.4318 10.19 11.88C10.19 12.81 10.95 13.56 11.88 13.56ZM13.27 23.5V15.13H10.5V23.5H13.27Z" fill="white"/>
</svg>
